<svg width="148" height="17" viewBox="0 0 148 17" fill="none" xmlns="http://www.w3.org/2000/svg">
<path d="M109 14.2499C108.923 14.2503 108.847 14.2356 108.776 14.2066C108.705 14.1776 108.64 14.1348 108.586 14.0807L104.053 9.54239C103.485 8.96791 103.166 8.1923 103.166 7.38405C103.166 6.57581 103.485 5.8002 104.053 5.22572C104.626 4.65435 105.403 4.3335 106.212 4.3335C107.021 4.3335 107.797 4.65435 108.37 5.22572L109 5.85572L109.63 5.22572C110.203 4.65435 110.979 4.3335 111.788 4.3335C112.598 4.3335 113.374 4.65435 113.947 5.22572C114.515 5.8002 114.834 6.57581 114.834 7.38405C114.834 8.1923 114.515 8.96791 113.947 9.54239L109.414 14.0807C109.36 14.1348 109.295 14.1776 109.224 14.2066C109.153 14.2356 109.077 14.2503 109 14.2499Z" fill="#F25822" fill-opacity="0.5"/>
<path d="M127.476 7.457C128.063 7.567 128.543 7.82 128.917 8.216C129.291 8.612 129.478 9.11433 129.478 9.723C129.478 10.471 129.221 11.0613 128.708 11.494C128.195 11.9267 127.571 12.143 126.838 12.143C126.251 12.143 125.731 12.011 125.276 11.747C124.821 11.4757 124.499 11.087 124.308 10.581L125.166 10.075C125.393 10.7863 125.951 11.142 126.838 11.142C127.315 11.142 127.703 11.0173 128.004 10.768C128.305 10.5187 128.455 10.1703 128.455 9.723C128.455 9.27567 128.305 8.92733 128.004 8.678C127.703 8.42133 127.315 8.293 126.838 8.293H126.574L126.167 7.666L127.949 5.257H124.528V4.3H129.148V5.202L127.476 7.457ZM130.218 12V11.164L132.935 8.392C133.661 7.666 134.024 7.04267 134.024 6.522C134.024 6.08933 133.892 5.752 133.628 5.51C133.364 5.268 133.042 5.147 132.66 5.147C131.934 5.147 131.406 5.49167 131.076 6.181L130.218 5.675C130.46 5.17633 130.794 4.79867 131.219 4.542C131.652 4.28533 132.129 4.157 132.649 4.157C133.295 4.157 133.856 4.36967 134.332 4.795C134.809 5.22033 135.047 5.79233 135.047 6.511C135.047 7.28833 134.589 8.13533 133.672 9.052L131.703 11.01H135.19V12H130.218ZM140.221 11.032H143.543V12H139.198V4.3H140.221V11.032ZM148.897 11.307C148.333 11.8643 147.647 12.143 146.84 12.143C146.034 12.143 145.348 11.8643 144.783 11.307C144.226 10.7497 143.947 10.064 143.947 9.25C143.947 8.436 144.226 7.75033 144.783 7.193C145.348 6.63567 146.034 6.357 146.84 6.357C147.647 6.357 148.333 6.63567 148.897 7.193C149.462 7.75033 149.744 8.436 149.744 9.25C149.744 10.064 149.462 10.7497 148.897 11.307ZM146.84 11.208C147.39 11.208 147.852 11.021 148.226 10.647C148.6 10.273 148.787 9.80733 148.787 9.25C148.787 8.69267 148.6 8.227 148.226 7.853C147.852 7.479 147.39 7.292 146.84 7.292C146.298 7.292 145.839 7.479 145.465 7.853C145.091 8.227 144.904 8.69267 144.904 9.25C144.904 9.80733 145.091 10.273 145.465 10.647C145.839 11.021 146.298 11.208 146.84 11.208ZM154.508 6.5H155.542L153.342 12H152.22L150.02 6.5H151.054L152.781 10.977L154.508 6.5ZM156.807 9.69C156.902 10.1813 157.126 10.5627 157.478 10.834C157.837 11.1053 158.277 11.241 158.798 11.241C159.524 11.241 160.052 10.9733 160.382 10.438L161.196 10.9C160.661 11.7287 159.854 12.143 158.776 12.143C157.903 12.143 157.192 11.8717 156.642 11.329C156.099 10.779 155.828 10.086 155.828 9.25C155.828 8.42133 156.096 7.732 156.631 7.182C157.166 6.632 157.859 6.357 158.71 6.357C159.517 6.357 160.173 6.643 160.679 7.215C161.192 7.77967 161.449 8.46167 161.449 9.261C161.449 9.40033 161.438 9.54333 161.416 9.69H156.807ZM158.71 7.259C158.197 7.259 157.771 7.40567 157.434 7.699C157.097 7.985 156.888 8.37 156.807 8.854H160.481C160.4 8.33333 160.195 7.93733 159.865 7.666C159.535 7.39467 159.15 7.259 158.71 7.259Z" fill="#888888" fill-opacity="0.5"/>
<path d="M25.225 8.007C25.577 8.17567 25.8557 8.41767 26.061 8.733C26.2737 9.04833 26.38 9.41133 26.38 9.822C26.38 10.438 26.1637 10.955 25.731 11.373C25.2983 11.791 24.7703 12 24.147 12H20.825V4.3H23.905C24.5063 4.3 25.016 4.50167 25.434 4.905C25.852 5.30833 26.061 5.807 26.061 6.401C26.061 7.083 25.7823 7.61833 25.225 8.007ZM23.905 5.257H21.848V7.611H23.905C24.2277 7.611 24.499 7.49733 24.719 7.27C24.939 7.04267 25.049 6.764 25.049 6.434C25.049 6.11133 24.9353 5.83633 24.708 5.609C24.488 5.37433 24.2203 5.257 23.905 5.257ZM24.147 11.043C24.4917 11.043 24.7813 10.922 25.016 10.68C25.2507 10.438 25.368 10.141 25.368 9.789C25.368 9.44433 25.247 9.151 25.005 8.909C24.7703 8.667 24.4843 8.546 24.147 8.546H21.848V11.043H24.147ZM31.1714 6.5H32.1944L29.9504 12.341C29.7158 12.9643 29.3858 13.4373 28.9604 13.76C28.5424 14.09 28.0584 14.2367 27.5084 14.2V13.309C28.1831 13.3603 28.6781 12.9863 28.9934 12.187L29.0924 11.978L26.6944 6.5H27.7174L29.5874 10.812L31.1714 6.5ZM40.9136 12L40.2866 10.273H36.8216L36.1946 12H35.1056L37.9766 4.3H39.1316L42.0026 12H40.9136ZM37.1736 9.316H39.9346L38.5486 5.521L37.1736 9.316ZM47.237 4.3H48.194V12H47.237V11.054C46.7604 11.78 46.0674 12.143 45.158 12.143C44.388 12.143 43.7317 11.8643 43.189 11.307C42.6464 10.7423 42.375 10.0567 42.375 9.25C42.375 8.44333 42.6464 7.76133 43.189 7.204C43.7317 6.63933 44.388 6.357 45.158 6.357C46.0674 6.357 46.7604 6.72 47.237 7.446V4.3ZM45.279 11.219C45.8364 11.219 46.302 11.032 46.676 10.658C47.05 10.2767 47.237 9.80733 47.237 9.25C47.237 8.69267 47.05 8.227 46.676 7.853C46.302 7.47167 45.8364 7.281 45.279 7.281C44.729 7.281 44.267 7.47167 43.893 7.853C43.519 8.227 43.332 8.69267 43.332 9.25C43.332 9.80733 43.519 10.2767 43.893 10.658C44.267 11.032 44.729 11.219 45.279 11.219ZM55.584 6.357C56.2 6.357 56.6986 6.55867 57.08 6.962C57.4613 7.358 57.652 7.897 57.652 8.579V12H56.695V8.612C56.695 8.18667 56.585 7.85667 56.365 7.622C56.145 7.38733 55.8516 7.27 55.485 7.27C55.0743 7.27 54.7443 7.40933 54.495 7.688C54.253 7.95933 54.132 8.37733 54.132 8.942V12H53.175V8.612C53.175 8.18667 53.0686 7.85667 52.856 7.622C52.6506 7.38733 52.3683 7.27 52.009 7.27C51.6056 7.27 51.2683 7.40933 50.997 7.688C50.733 7.96667 50.601 8.38467 50.601 8.942V12H49.644V6.5H50.601V7.237C50.975 6.65033 51.5213 6.357 52.24 6.357C52.9806 6.357 53.5196 6.66867 53.857 7.292C54.2383 6.66867 54.814 6.357 55.584 6.357ZM59.4629 5.499C59.2796 5.499 59.1256 5.43667 59.0009 5.312C58.8763 5.18733 58.8139 5.037 58.8139 4.861C58.8139 4.685 58.8763 4.53467 59.0009 4.41C59.1256 4.278 59.2796 4.212 59.4629 4.212C59.6389 4.212 59.7893 4.278 59.9139 4.41C60.0386 4.53467 60.1009 4.685 60.1009 4.861C60.1009 5.037 60.0386 5.18733 59.9139 5.312C59.7893 5.43667 59.6389 5.499 59.4629 5.499ZM58.9789 12V6.5H59.9359V12H58.9789ZM64.1349 6.357C64.7803 6.357 65.2973 6.56233 65.6859 6.973C66.0746 7.37633 66.2689 7.92633 66.2689 8.623V12H65.3119V8.678C65.3119 8.23067 65.1909 7.886 64.9489 7.644C64.7069 7.39467 64.3733 7.27 63.9479 7.27C63.4713 7.27 63.0863 7.42033 62.7929 7.721C62.4996 8.01433 62.3529 8.469 62.3529 9.085V12H61.3959V6.5H62.3529V7.292C62.7416 6.66867 63.3356 6.357 64.1349 6.357Z" fill="#888888" fill-opacity="0.5"/>
<path d="M6.99984 8.41667C7.46133 8.41667 7.91245 8.27982 8.29617 8.02343C8.67988 7.76704 8.97895 7.40262 9.15556 6.97626C9.33216 6.5499 9.37837 6.08075 9.28834 5.62812C9.1983 5.1755 8.97608 4.75974 8.64975 4.43342C8.32343 4.1071 7.90767 3.88487 7.45505 3.79484C7.00243 3.7048 6.53327 3.75101 6.10691 3.92762C5.68055 4.10422 5.31613 4.40329 5.05974 4.787C4.80335 5.17072 4.6665 5.62184 4.6665 6.08333C4.6665 6.70217 4.91234 7.29567 5.34992 7.73325C5.78751 8.17084 6.381 8.41667 6.99984 8.41667Z" fill="#F25822" fill-opacity="0.5"/>
<path d="M10.4998 14.2497C10.6545 14.2497 10.8029 14.1882 10.9123 14.0788C11.0217 13.9694 11.0832 13.8211 11.0832 13.6663C11.0832 12.5834 10.653 11.5448 9.88719 10.779C9.12142 10.0132 8.0828 9.58301 6.99984 9.58301C5.91687 9.58301 4.87826 10.0132 4.11248 10.779C3.34671 11.5448 2.9165 12.5834 2.9165 13.6663C2.9165 13.8211 2.97796 13.9694 3.08736 14.0788C3.19675 14.1882 3.34513 14.2497 3.49984 14.2497H10.4998Z" fill="#F25822" fill-opacity="0.5"/>
</svg>
