<svg width="283" height="17" viewBox="0 0 283 17" fill="none" xmlns="http://www.w3.org/2000/svg">
<path d="M208.124 4.722C207.167 3.75862 205.904 3.15937 204.552 3.02755C203.201 2.89574 201.846 3.23962 200.72 3.99991C199.595 4.7602 198.77 5.88925 198.388 7.19242C198.006 8.49559 198.091 9.89121 198.628 11.1387C198.684 11.2546 198.702 11.3851 198.68 11.512L198.167 13.9795C198.147 14.0741 198.151 14.1721 198.179 14.2648C198.206 14.3574 198.256 14.4418 198.324 14.5103C198.38 14.5658 198.447 14.6094 198.52 14.6385C198.593 14.6675 198.671 14.6815 198.75 14.6795H198.867L201.364 14.1778C201.49 14.1626 201.619 14.1807 201.737 14.2303C202.984 14.767 204.38 14.8516 205.683 14.4696C206.986 14.0876 208.115 13.2629 208.876 12.1377C209.636 11.0125 209.98 9.65723 209.848 8.30563C209.716 6.95404 209.117 5.69079 208.154 4.73366L208.124 4.722ZM201.667 9.4295C201.551 9.4295 201.439 9.39529 201.343 9.33119C201.247 9.26709 201.172 9.17599 201.128 9.0694C201.084 8.96281 201.072 8.84552 201.095 8.73236C201.117 8.61921 201.173 8.51527 201.254 8.43368C201.336 8.3521 201.44 8.29655 201.553 8.27404C201.666 8.25153 201.783 8.26308 201.89 8.30723C201.997 8.35139 202.088 8.42615 202.152 8.52208C202.216 8.61801 202.25 8.73079 202.25 8.84616C202.25 9.00087 202.189 9.14925 202.079 9.25864C201.97 9.36804 201.822 9.4295 201.667 9.4295ZM204 9.4295C203.885 9.4295 203.772 9.39529 203.676 9.33119C203.58 9.26709 203.505 9.17599 203.461 9.0694C203.417 8.96281 203.406 8.84552 203.428 8.73236C203.451 8.61921 203.506 8.51527 203.588 8.43368C203.669 8.3521 203.773 8.29655 203.886 8.27404C204 8.25153 204.117 8.26308 204.223 8.30723C204.33 8.35139 204.421 8.42615 204.485 8.52208C204.549 8.61801 204.584 8.73079 204.584 8.84616C204.584 9.00087 204.522 9.14925 204.413 9.25864C204.303 9.36804 204.155 9.4295 204 9.4295ZM206.334 9.4295C206.218 9.4295 206.105 9.39529 206.009 9.33119C205.914 9.26709 205.839 9.17599 205.795 9.0694C205.75 8.96281 205.739 8.84552 205.761 8.73236C205.784 8.61921 205.839 8.51527 205.921 8.43368C206.003 8.3521 206.107 8.29655 206.22 8.27404C206.333 8.25153 206.45 8.26308 206.557 8.30723C206.663 8.35139 206.754 8.42615 206.819 8.52208C206.883 8.61801 206.917 8.73079 206.917 8.84616C206.917 9.00087 206.855 9.14925 206.746 9.25864C206.637 9.36804 206.488 9.4295 206.334 9.4295Z" fill="#F25822" fill-opacity="0.5"/>
<path d="M222.178 4.3H223.058V12H222.046V5.4L220.407 5.884L220.154 5.004L222.178 4.3ZM227.397 7.457C227.984 7.567 228.464 7.82 228.838 8.216C229.212 8.612 229.399 9.11433 229.399 9.723C229.399 10.471 229.142 11.0613 228.629 11.494C228.116 11.9267 227.492 12.143 226.759 12.143C226.172 12.143 225.652 12.011 225.197 11.747C224.742 11.4757 224.42 11.087 224.229 10.581L225.087 10.075C225.314 10.7863 225.872 11.142 226.759 11.142C227.236 11.142 227.624 11.0173 227.925 10.768C228.226 10.5187 228.376 10.1703 228.376 9.723C228.376 9.27567 228.226 8.92733 227.925 8.678C227.624 8.42133 227.236 8.293 226.759 8.293H226.495L226.088 7.666L227.87 5.257H224.449V4.3H229.069V5.202L227.397 7.457ZM237.002 12.143C235.836 12.143 234.871 11.758 234.109 10.988C233.353 10.218 232.976 9.272 232.976 8.15C232.976 7.028 233.353 6.082 234.109 5.312C234.871 4.542 235.836 4.157 237.002 4.157C237.706 4.157 238.351 4.32567 238.938 4.663C239.532 5.00033 239.994 5.455 240.324 6.027L239.433 6.544C239.213 6.11867 238.883 5.78133 238.443 5.532C238.01 5.27533 237.53 5.147 237.002 5.147C236.114 5.147 235.388 5.433 234.824 6.005C234.266 6.577 233.988 7.292 233.988 8.15C233.988 9.00067 234.266 9.712 234.824 10.284C235.388 10.856 236.114 11.142 237.002 11.142C237.53 11.142 238.01 11.0173 238.443 10.768C238.883 10.5113 239.213 10.174 239.433 9.756L240.324 10.262C240.001 10.834 239.543 11.2923 238.949 11.637C238.355 11.9743 237.706 12.143 237.002 12.143ZM246.004 11.307C245.439 11.8643 244.753 12.143 243.947 12.143C243.14 12.143 242.454 11.8643 241.89 11.307C241.332 10.7497 241.054 10.064 241.054 9.25C241.054 8.436 241.332 7.75033 241.89 7.193C242.454 6.63567 243.14 6.357 243.947 6.357C244.753 6.357 245.439 6.63567 246.004 7.193C246.568 7.75033 246.851 8.436 246.851 9.25C246.851 10.064 246.568 10.7497 246.004 11.307ZM243.947 11.208C244.497 11.208 244.959 11.021 245.333 10.647C245.707 10.273 245.894 9.80733 245.894 9.25C245.894 8.69267 245.707 8.227 245.333 7.853C244.959 7.479 244.497 7.292 243.947 7.292C243.404 7.292 242.946 7.479 242.572 7.853C242.198 8.227 242.011 8.69267 242.011 9.25C242.011 9.80733 242.198 10.273 242.572 10.647C242.946 11.021 243.404 11.208 243.947 11.208ZM253.919 6.357C254.535 6.357 255.034 6.55867 255.415 6.962C255.796 7.358 255.987 7.897 255.987 8.579V12H255.03V8.612C255.03 8.18667 254.92 7.85667 254.7 7.622C254.48 7.38733 254.187 7.27 253.82 7.27C253.409 7.27 253.079 7.40933 252.83 7.688C252.588 7.95933 252.467 8.37733 252.467 8.942V12H251.51V8.612C251.51 8.18667 251.404 7.85667 251.191 7.622C250.986 7.38733 250.703 7.27 250.344 7.27C249.941 7.27 249.603 7.40933 249.332 7.688C249.068 7.96667 248.936 8.38467 248.936 8.942V12H247.979V6.5H248.936V7.237C249.31 6.65033 249.856 6.357 250.575 6.357C251.316 6.357 251.855 6.66867 252.192 7.292C252.573 6.66867 253.149 6.357 253.919 6.357ZM263.254 6.357C263.87 6.357 264.369 6.55867 264.75 6.962C265.131 7.358 265.322 7.897 265.322 8.579V12H264.365V8.612C264.365 8.18667 264.255 7.85667 264.035 7.622C263.815 7.38733 263.522 7.27 263.155 7.27C262.744 7.27 262.414 7.40933 262.165 7.688C261.923 7.95933 261.802 8.37733 261.802 8.942V12H260.845V8.612C260.845 8.18667 260.739 7.85667 260.526 7.622C260.321 7.38733 260.038 7.27 259.679 7.27C259.276 7.27 258.938 7.40933 258.667 7.688C258.403 7.96667 258.271 8.38467 258.271 8.942V12H257.314V6.5H258.271V7.237C258.645 6.65033 259.191 6.357 259.91 6.357C260.651 6.357 261.19 6.66867 261.527 7.292C261.908 6.66867 262.484 6.357 263.254 6.357ZM267.32 9.69C267.415 10.1813 267.639 10.5627 267.991 10.834C268.35 11.1053 268.79 11.241 269.311 11.241C270.037 11.241 270.565 10.9733 270.895 10.438L271.709 10.9C271.174 11.7287 270.367 12.143 269.289 12.143C268.416 12.143 267.705 11.8717 267.155 11.329C266.612 10.779 266.341 10.086 266.341 9.25C266.341 8.42133 266.609 7.732 267.144 7.182C267.679 6.632 268.372 6.357 269.223 6.357C270.03 6.357 270.686 6.643 271.192 7.215C271.705 7.77967 271.962 8.46167 271.962 9.261C271.962 9.40033 271.951 9.54333 271.929 9.69H267.32ZM269.223 7.259C268.71 7.259 268.284 7.40567 267.947 7.699C267.61 7.985 267.401 8.37 267.32 8.854H270.994C270.913 8.33333 270.708 7.93733 270.378 7.666C270.048 7.39467 269.663 7.259 269.223 7.259ZM275.801 6.357C276.446 6.357 276.963 6.56233 277.352 6.973C277.741 7.37633 277.935 7.92633 277.935 8.623V12H276.978V8.678C276.978 8.23067 276.857 7.886 276.615 7.644C276.373 7.39467 276.039 7.27 275.614 7.27C275.137 7.27 274.752 7.42033 274.459 7.721C274.166 8.01433 274.019 8.469 274.019 9.085V12H273.062V6.5H274.019V7.292C274.408 6.66867 275.002 6.357 275.801 6.357ZM282.263 7.424H280.8V10.405C280.8 10.6763 280.851 10.8707 280.954 10.988C281.064 11.098 281.229 11.1567 281.449 11.164C281.669 11.164 281.94 11.1567 282.263 11.142V12C281.427 12.11 280.815 12.044 280.426 11.802C280.037 11.5527 279.843 11.087 279.843 10.405V7.424H278.754V6.5H279.843V5.246L280.8 4.96V6.5H282.263V7.424Z" fill="#888888" fill-opacity="0.5"/>
<path d="M109 14.2499C108.923 14.2503 108.847 14.2356 108.776 14.2066C108.705 14.1776 108.64 14.1348 108.586 14.0807L104.053 9.54239C103.485 8.96791 103.166 8.1923 103.166 7.38405C103.166 6.57581 103.485 5.8002 104.053 5.22572C104.626 4.65435 105.403 4.3335 106.212 4.3335C107.021 4.3335 107.797 4.65435 108.37 5.22572L109 5.85572L109.63 5.22572C110.203 4.65435 110.979 4.3335 111.788 4.3335C112.598 4.3335 113.374 4.65435 113.947 5.22572C114.515 5.8002 114.834 6.57581 114.834 7.38405C114.834 8.1923 114.515 8.96791 113.947 9.54239L109.414 14.0807C109.36 14.1348 109.295 14.1776 109.224 14.2066C109.153 14.2356 109.077 14.2503 109 14.2499Z" fill="#F25822" fill-opacity="0.5"/>
<path d="M127.476 7.457C128.063 7.567 128.543 7.82 128.917 8.216C129.291 8.612 129.478 9.11433 129.478 9.723C129.478 10.471 129.221 11.0613 128.708 11.494C128.195 11.9267 127.571 12.143 126.838 12.143C126.251 12.143 125.731 12.011 125.276 11.747C124.821 11.4757 124.499 11.087 124.308 10.581L125.166 10.075C125.393 10.7863 125.951 11.142 126.838 11.142C127.315 11.142 127.703 11.0173 128.004 10.768C128.305 10.5187 128.455 10.1703 128.455 9.723C128.455 9.27567 128.305 8.92733 128.004 8.678C127.703 8.42133 127.315 8.293 126.838 8.293H126.574L126.167 7.666L127.949 5.257H124.528V4.3H129.148V5.202L127.476 7.457ZM130.218 12V11.164L132.935 8.392C133.661 7.666 134.024 7.04267 134.024 6.522C134.024 6.08933 133.892 5.752 133.628 5.51C133.364 5.268 133.042 5.147 132.66 5.147C131.934 5.147 131.406 5.49167 131.076 6.181L130.218 5.675C130.46 5.17633 130.794 4.79867 131.219 4.542C131.652 4.28533 132.129 4.157 132.649 4.157C133.295 4.157 133.856 4.36967 134.332 4.795C134.809 5.22033 135.047 5.79233 135.047 6.511C135.047 7.28833 134.589 8.13533 133.672 9.052L131.703 11.01H135.19V12H130.218ZM140.221 11.032H143.543V12H139.198V4.3H140.221V11.032ZM148.897 11.307C148.333 11.8643 147.647 12.143 146.84 12.143C146.034 12.143 145.348 11.8643 144.783 11.307C144.226 10.7497 143.947 10.064 143.947 9.25C143.947 8.436 144.226 7.75033 144.783 7.193C145.348 6.63567 146.034 6.357 146.84 6.357C147.647 6.357 148.333 6.63567 148.897 7.193C149.462 7.75033 149.744 8.436 149.744 9.25C149.744 10.064 149.462 10.7497 148.897 11.307ZM146.84 11.208C147.39 11.208 147.852 11.021 148.226 10.647C148.6 10.273 148.787 9.80733 148.787 9.25C148.787 8.69267 148.6 8.227 148.226 7.853C147.852 7.479 147.39 7.292 146.84 7.292C146.298 7.292 145.839 7.479 145.465 7.853C145.091 8.227 144.904 8.69267 144.904 9.25C144.904 9.80733 145.091 10.273 145.465 10.647C145.839 11.021 146.298 11.208 146.84 11.208ZM154.508 6.5H155.542L153.342 12H152.22L150.02 6.5H151.054L152.781 10.977L154.508 6.5ZM156.807 9.69C156.902 10.1813 157.126 10.5627 157.478 10.834C157.837 11.1053 158.277 11.241 158.798 11.241C159.524 11.241 160.052 10.9733 160.382 10.438L161.196 10.9C160.661 11.7287 159.854 12.143 158.776 12.143C157.903 12.143 157.192 11.8717 156.642 11.329C156.099 10.779 155.828 10.086 155.828 9.25C155.828 8.42133 156.096 7.732 156.631 7.182C157.166 6.632 157.859 6.357 158.71 6.357C159.517 6.357 160.173 6.643 160.679 7.215C161.192 7.77967 161.449 8.46167 161.449 9.261C161.449 9.40033 161.438 9.54333 161.416 9.69H156.807ZM158.71 7.259C158.197 7.259 157.771 7.40567 157.434 7.699C157.097 7.985 156.888 8.37 156.807 8.854H160.481C160.4 8.33333 160.195 7.93733 159.865 7.666C159.535 7.39467 159.15 7.259 158.71 7.259Z" fill="#888888" fill-opacity="0.5"/>
<path d="M25.225 8.007C25.577 8.17567 25.8557 8.41767 26.061 8.733C26.2737 9.04833 26.38 9.41133 26.38 9.822C26.38 10.438 26.1637 10.955 25.731 11.373C25.2983 11.791 24.7703 12 24.147 12H20.825V4.3H23.905C24.5063 4.3 25.016 4.50167 25.434 4.905C25.852 5.30833 26.061 5.807 26.061 6.401C26.061 7.083 25.7823 7.61833 25.225 8.007ZM23.905 5.257H21.848V7.611H23.905C24.2277 7.611 24.499 7.49733 24.719 7.27C24.939 7.04267 25.049 6.764 25.049 6.434C25.049 6.11133 24.9353 5.83633 24.708 5.609C24.488 5.37433 24.2203 5.257 23.905 5.257ZM24.147 11.043C24.4917 11.043 24.7813 10.922 25.016 10.68C25.2507 10.438 25.368 10.141 25.368 9.789C25.368 9.44433 25.247 9.151 25.005 8.909C24.7703 8.667 24.4843 8.546 24.147 8.546H21.848V11.043H24.147ZM31.1714 6.5H32.1944L29.9504 12.341C29.7158 12.9643 29.3858 13.4373 28.9604 13.76C28.5424 14.09 28.0584 14.2367 27.5084 14.2V13.309C28.1831 13.3603 28.6781 12.9863 28.9934 12.187L29.0924 11.978L26.6944 6.5H27.7174L29.5874 10.812L31.1714 6.5ZM40.9136 12L40.2866 10.273H36.8216L36.1946 12H35.1056L37.9766 4.3H39.1316L42.0026 12H40.9136ZM37.1736 9.316H39.9346L38.5486 5.521L37.1736 9.316ZM47.237 4.3H48.194V12H47.237V11.054C46.7604 11.78 46.0674 12.143 45.158 12.143C44.388 12.143 43.7317 11.8643 43.189 11.307C42.6464 10.7423 42.375 10.0567 42.375 9.25C42.375 8.44333 42.6464 7.76133 43.189 7.204C43.7317 6.63933 44.388 6.357 45.158 6.357C46.0674 6.357 46.7604 6.72 47.237 7.446V4.3ZM45.279 11.219C45.8364 11.219 46.302 11.032 46.676 10.658C47.05 10.2767 47.237 9.80733 47.237 9.25C47.237 8.69267 47.05 8.227 46.676 7.853C46.302 7.47167 45.8364 7.281 45.279 7.281C44.729 7.281 44.267 7.47167 43.893 7.853C43.519 8.227 43.332 8.69267 43.332 9.25C43.332 9.80733 43.519 10.2767 43.893 10.658C44.267 11.032 44.729 11.219 45.279 11.219ZM55.584 6.357C56.2 6.357 56.6986 6.55867 57.08 6.962C57.4613 7.358 57.652 7.897 57.652 8.579V12H56.695V8.612C56.695 8.18667 56.585 7.85667 56.365 7.622C56.145 7.38733 55.8516 7.27 55.485 7.27C55.0743 7.27 54.7443 7.40933 54.495 7.688C54.253 7.95933 54.132 8.37733 54.132 8.942V12H53.175V8.612C53.175 8.18667 53.0686 7.85667 52.856 7.622C52.6506 7.38733 52.3683 7.27 52.009 7.27C51.6056 7.27 51.2683 7.40933 50.997 7.688C50.733 7.96667 50.601 8.38467 50.601 8.942V12H49.644V6.5H50.601V7.237C50.975 6.65033 51.5213 6.357 52.24 6.357C52.9806 6.357 53.5196 6.66867 53.857 7.292C54.2383 6.66867 54.814 6.357 55.584 6.357ZM59.4629 5.499C59.2796 5.499 59.1256 5.43667 59.0009 5.312C58.8763 5.18733 58.8139 5.037 58.8139 4.861C58.8139 4.685 58.8763 4.53467 59.0009 4.41C59.1256 4.278 59.2796 4.212 59.4629 4.212C59.6389 4.212 59.7893 4.278 59.9139 4.41C60.0386 4.53467 60.1009 4.685 60.1009 4.861C60.1009 5.037 60.0386 5.18733 59.9139 5.312C59.7893 5.43667 59.6389 5.499 59.4629 5.499ZM58.9789 12V6.5H59.9359V12H58.9789ZM64.1349 6.357C64.7803 6.357 65.2973 6.56233 65.6859 6.973C66.0746 7.37633 66.2689 7.92633 66.2689 8.623V12H65.3119V8.678C65.3119 8.23067 65.1909 7.886 64.9489 7.644C64.7069 7.39467 64.3733 7.27 63.9479 7.27C63.4713 7.27 63.0863 7.42033 62.7929 7.721C62.4996 8.01433 62.3529 8.469 62.3529 9.085V12H61.3959V6.5H62.3529V7.292C62.7416 6.66867 63.3356 6.357 64.1349 6.357Z" fill="#888888" fill-opacity="0.5"/>
<path d="M6.99984 8.41667C7.46133 8.41667 7.91245 8.27982 8.29617 8.02343C8.67988 7.76704 8.97895 7.40262 9.15556 6.97626C9.33216 6.5499 9.37837 6.08075 9.28834 5.62812C9.1983 5.1755 8.97608 4.75974 8.64975 4.43342C8.32343 4.1071 7.90767 3.88487 7.45505 3.79484C7.00243 3.7048 6.53327 3.75101 6.10691 3.92762C5.68055 4.10422 5.31613 4.40329 5.05974 4.787C4.80335 5.17072 4.6665 5.62184 4.6665 6.08333C4.6665 6.70217 4.91234 7.29567 5.34992 7.73325C5.78751 8.17084 6.381 8.41667 6.99984 8.41667Z" fill="#F25822" fill-opacity="0.5"/>
<path d="M10.4998 14.2497C10.6545 14.2497 10.8029 14.1882 10.9123 14.0788C11.0217 13.9694 11.0832 13.8211 11.0832 13.6663C11.0832 12.5834 10.653 11.5448 9.88719 10.779C9.12142 10.0132 8.0828 9.58301 6.99984 9.58301C5.91687 9.58301 4.87826 10.0132 4.11248 10.779C3.34671 11.5448 2.9165 12.5834 2.9165 13.6663C2.9165 13.8211 2.97796 13.9694 3.08736 14.0788C3.19675 14.1882 3.34513 14.2497 3.49984 14.2497H10.4998Z" fill="#F25822" fill-opacity="0.5"/>
</svg>
